# xmcd
# 
# Track frame offsets:
#     150
#     17327
#     35142
#     51305
#     66940
#     82685
#     100632
#     120560
#     134547
#     152930
#     168025
#     183657
#     199765
# 
# Disc length: 2873
# 
# Revision: 4
# Processed by: cddbd v1.5.2PL0 Copyright (c) Steve Scherf et al.
# Submitted via: fre:ac v1.0.17
# 
DISCID=a70b370d
DTITLE=Juan Navarro - Mi amor por ti
DYEAR=0
DGENRE=Pop
TTITLE0=Te juro, te digo
TTITLE1=Por volverte a ver
TTITLE2=Hoy te quiero
TTITLE3=Amor perdido
TTITLE4=Estrellita
TTITLE5=Mi amor por ti
TTITLE6=Lo mejor de tu vida
TTITLE7=Que bonita es mi tierra
TTITLE8=No hace falta
TTITLE9=Sé mi amor (Be my love)
TTITLE10=Tu voz
TTITLE11=La gota fría
TTITLE12=Al final
EXTD=ID3G:   0
EXTT0=
EXTT1=
EXTT2=
EXTT3=
EXTT4=
EXTT5=
EXTT6=
EXTT7=
EXTT8=
EXTT9=
EXTT10=
EXTT11=
EXTT12=
PLAYORDER=
